<?xml version="1.0" encoding="UTF-8"?>
<svg id="Layer_1" data-name="Layer 1" xmlns="http://www.w3.org/2000/svg" viewBox="0 0 500 500">
  <defs>
    <style>
      .cls-1 {
        fill: #f1f2f2;
      }
    </style>
  </defs>
  <path class="cls-1" d="M422.46,354.29c-18.06,9.31-35.52,18.33-52.99,27.31-36.89,18.96-73.85,37.78-110.62,56.97l-8.85,4.66-8.3-4.31c-32.34-17.11-65-33.61-98.6-50.88,6.12-10.71,11.85-20.73,18.15-31.75,15.47,7.93,30.41,15.6,45.35,23.26,12.3,6.31,24.48,12.9,37.01,18.72l6.39,3.43,8.84-4.81c38.56-19.42,72.97-37.32,112.58-57.72-18.64-32.41-36.99-64.31-56.04-97.41-10.99,5.54-65.38,31.76-65.38,31.76h0s-53.64-25.94-65.22-31.85c-24.83,43.08-49.43,85.75-74.6,129.42-11.02-5.68-21.58-11.12-32.63-16.82,57.5-99.79,114.55-198.8,172.45-299.29,20.79,36.09,40.71,70.66,61.03,105.94l-15.38,8.22-17.17,8.41c-9.39-16.21-18.36-31.69-28.47-49.12-15.91,27.55-31.11,53.87-46.91,81.25,15.08,7.78,32.32,15.85,46.91,22.68,2.61,1.22-3.07,1.55,0,0,23.74-11.96,54.59-26.5,79.5-39.34,30.96,53.7,61.74,107.12,92.95,161.26Z"/>
</svg>